# xmcd
#
# Track frame offsets: 
#        150
#        11944
#        37875
#        52114
#        72448
#        106498
#        124451
#        143210
#        171119
#        222826
#
# Disc length: 3324 seconds
#
# Revision: 0
# Processed by: cddbd v1.4PL0 Copyright (c) Steve Scherf et al.
# Submitted via: ExactAudioCopy v0.90b4
#
DISCID=990cfa0a
DTITLE=Van Morrison - NDR2 Radiokonzert Musikhalle Hamburg Live
DYEAR=2003
DGENRE=Blues
TTITLE0=I Will Be There
TTITLE1=What's Wrong With This Picture
TTITLE2=Once In A Blue Moon
TTITLE3=In The Midnight
TTITLE4=I Like It That - Kansas City
TTITLE5=Hoochie Coochie Man
TTITLE6=Back On Top
TTITLE7=Philosopher's Stone
TTITLE8=The Healing Has Begun
TTITLE9=Gloria
EXTD=
EXTT0=
EXTT1=
EXTT2=
EXTT3=
EXTT4=
EXTT5=
EXTT6=
EXTT7=
EXTT8=
EXTT9=
PLAYORDER=
